<?xml version="1.0" encoding="UTF-8"?>
<svg width="700pt" height="700pt" version="1.1" viewBox="0 0 700 700" xmlns="http://www.w3.org/2000/svg">
 <path d="m563.01 524.73c-7.4922 0-14.465 2.2422-20.371 5.9883l-50.75-50.75c3.6641-5.7695 5.5508-12.332 5.7969-18.922 65.242-14.164 115.36-37.27 141.42-65.023-7.6836 48.699-27.535 94.359-57.969 133.49-5.4141-2.9531-11.539-4.7852-18.129-4.7852zm-444.14 4.7852c-30.434-39.129-50.285-84.82-57.969-133.49 26.059 27.754 76.152 50.859 141.39 65.023 0.24609 6.8086 2.2422 13.289 5.8242 18.922l-50.75 50.75c-5.9062-3.7461-12.852-5.9883-20.344-5.9883-6.6172 0-12.742 1.832-18.156 4.7852zm-48.453-210.96c22.203-26.195 71.316-49.219 134.97-63.109 1.8594 4.3477 4.5117 8.4766 8.0391 12.004 4.1562 4.1562 9.0781 7.0273 14.273 8.8594-2.3242 24.008-3.6641 48.699-3.6641 73.688 0 24.988 1.3398 49.684 3.6641 73.66-5.2227 1.832-10.172 4.7031-14.355 8.8867-3.5 3.5-6.207 7.5742-8.0938 11.977-63.629-13.891-112.66-36.887-134.86-63.082 10.008-6.8906 16.598-18.43 16.598-31.445 0.027343-13.043-6.5625-24.555-16.57-31.445zm66.609-143.34c7.4922 0 14.465-2.2422 20.371-5.9883l50.805 50.832c-3.6367 5.7695-5.5508 12.305-5.7969 18.895-65.297 14.137-115.41 37.27-141.5 65.023 7.6836-48.727 27.535-94.414 57.996-133.55 5.4141 2.9531 11.539 4.7852 18.129 4.7852zm425.96 0c6.5898 0 12.715-1.832 18.129-4.7852 30.461 39.129 50.312 84.82 57.996 133.55-26.059-27.754-76.211-50.887-141.5-65.023-0.24609-6.5898-2.1602-13.125-5.7969-18.895l50.805-50.805c5.9062 3.7188 12.879 5.9609 20.371 5.9609zm66.609 206.23c-22.203 26.195-71.262 49.191-134.89 63.082-1.8594-4.3477-4.4844-8.4492-8.0391-11.977-4.1836-4.1836-9.1328-7.0547-14.355-8.8867 2.3242-24.008 3.6641-48.699 3.6641-73.66 0-24.992-1.3398-49.684-3.6641-73.688 5.1953-1.832 10.117-4.7031 14.273-8.8594 3.5547-3.5547 6.207-7.6562 8.0391-12.004 63.684 13.891 112.76 36.914 134.97 63.109-10.008 6.8906-16.598 18.402-16.598 31.445s6.5898 24.555 16.598 31.445zm-185.11 93.297c-8.3672-8.3672-8.3672-21.957 0-30.352 4.1836-4.1836 9.6797-6.2617 15.176-6.2617s10.992 2.1055 15.176 6.2617c8.3672 8.3672 8.3672 21.984 0 30.352-8.3672 8.3398-21.984 8.3398-30.352 0zm-166.3-19.086c-0.90234-8.6953-4.5391-16.816-10.801-23.078-6.4258-6.4258-14.602-9.8984-23.023-10.773-2.2695-23.352-3.5547-47.387-3.5547-71.777 0-24.336 1.3125-48.371 3.5547-71.777 8.4219-0.84766 16.652-4.3477 23.105-10.801 6.2891-6.2891 9.9258-14.383 10.801-23.105 46.785-4.5117 96.684-4.5391 143.5 0 0.84766 8.4219 4.3477 16.652 10.801 23.105s14.656 9.9258 23.105 10.801c2.2695 23.379 3.582 47.441 3.582 71.777 0 24.336-1.3125 48.371-3.582 71.777-8.3945 0.875-16.57 4.3477-22.996 10.773-6.4531 6.4531-9.9258 14.656-10.801 23.105-46.812 4.5117-96.879 4.5117-143.69-0.027343zm-52.992 19.086c-4.0469-4.0469-6.2891-9.4336-6.2891-15.176 0-5.7422 2.2422-11.129 6.2891-15.176 4.1836-4.1836 9.6797-6.2617 15.176-6.2617 5.4961 0 10.992 2.0781 15.176 6.2617 4.0469 4.0469 6.2891 9.4336 6.2891 15.176 0 5.7148-2.2422 11.102-6.2891 15.176-8.3672 8.3672-21.984 8.3398-30.352 0zm0.082031-249.49c4.0469-4.0469 9.4336-6.2891 15.176-6.2891 5.7148 0 11.129 2.2422 15.176 6.2891s6.2891 9.4336 6.2891 15.176c0 5.7148-2.2422 11.129-6.2891 15.176-8.3672 8.3672-21.984 8.3672-30.352 0-8.3672-8.3672-8.3672-21.984 0-30.352zm249.49 0c8.3672 8.3672 8.3672 21.984 0 30.352-8.3672 8.3672-21.957 8.3672-30.352 0-8.3672-8.3672-8.3672-21.984 0-30.352 8.1211-8.0938 22.23-8.0938 30.352 0zm56.027-67.867-50.887 50.887c-5.6602-3.4453-12.168-5.2773-18.758-5.5234-14.137-65.461-37.297-115.72-65.105-141.84 48.699 7.6836 94.414 27.535 133.55 57.996-2.9531 5.4141-4.7852 11.539-4.7852 18.129 0 7.4922 2.2422 14.438 5.9883 20.344zm-149.32-86.98c26.195 22.23 49.246 71.395 63.137 135.14-4.4297 1.8047-8.5586 4.4023-12.031 7.9023-4.1562 4.1562-7.0273 9.0781-8.8594 14.273-48.07-4.6484-99.316-4.6484-147.39 0-1.8867-5.3047-4.7852-10.199-8.8867-14.273-3.5547-3.5547-7.6562-6.207-12.004-8.0391 13.891-63.684 36.914-112.76 63.109-134.97 6.8906 10.008 18.402 16.598 31.445 16.598 13.07-0.027344 24.582-6.6172 31.473-16.625zm-142.48 131.98c-6.5898 0.24609-13.125 2.1602-18.895 5.7969l-50.805-50.832c3.7461-5.9062 5.9883-12.852 5.9883-20.371 0-6.5898-1.832-12.715-4.7852-18.129 39.129-30.461 84.82-50.312 133.55-57.996-27.781 26.113-50.914 76.238-65.051 141.53zm-69.754 340.16 50.75-50.75c5.7969 3.6641 12.359 5.5781 19.004 5.8242 14.137 65.215 37.324 115.45 65.078 141.5-48.754-7.6836-94.473-27.562-133.63-58.023 2.9531-5.4141 4.8125-11.539 4.8125-18.156-0.027343-7.5195-2.2695-14.492-6.0156-20.398zm149.3 87.086c-26.469-22.285-49.055-70.602-63.082-135.05 4.3203-1.8594 8.3945-4.4844 11.922-8.0117 4.1016-4.1016 7-8.9961 8.8867-14.273 24.008 2.3516 48.727 3.6641 73.773 3.6641s49.766-1.3398 73.773-3.6641c1.832 5.1953 4.7031 10.117 8.8594 14.273 3.5273 3.5273 7.6016 6.1523 11.922 8.0117-14 64.449-36.613 112.79-63.082 135.08-6.8906-10.035-18.43-16.652-31.5-16.652-13.043-0.027344-24.582 6.5898-31.473 16.625zm142.54-132.04c6.6172-0.24609 13.18-2.1602 18.977-5.7969l50.75 50.75c-3.7461 5.9062-5.9883 12.852-5.9883 20.371 0 6.6172 1.832 12.742 4.8125 18.156-39.156 30.488-84.902 50.367-133.63 58.023 27.754-26.031 50.969-76.266 65.078-141.5zm211.61-147.6c0 11.84-9.625 21.465-21.465 21.465-11.812 0-21.438-9.625-21.438-21.465s9.625-21.438 21.465-21.438c11.812 0 21.438 9.5977 21.438 21.438zm-88.234-212.98c0 11.84-9.625 21.438-21.438 21.438-5.8789 0-11.211-2.3789-15.094-6.2344-0.027344-0.027343-0.027344-0.054687-0.054688-0.082031s-0.054687-0.027344-0.082031-0.054688c-3.8555-3.8828-6.2344-9.2148-6.2344-15.094 0-11.84 9.625-21.438 21.465-21.438 11.812 0.027344 21.438 9.6523 21.438 21.465zm-234.41-109.68c11.84 0 21.465 9.625 21.465 21.438 0 11.84-9.625 21.465-21.465 21.465-11.84 0-21.438-9.625-21.438-21.465 0-11.812 9.5977-21.438 21.438-21.438zm-212.98 88.234c11.84 0 21.438 9.625 21.438 21.438 0 5.8789-2.3789 11.211-6.2344 15.094-0.027344 0.027344-0.054688 0.027344-0.082032 0.054688-0.027344 0.027343-0.027344 0.054687-0.054687 0.082031-3.8828 3.8555-9.2148 6.2344-15.094 6.2344-11.84 0-21.465-9.625-21.465-21.438 0.054687-11.84 9.6797-21.465 21.492-21.465zm-109.68 234.41c0-11.84 9.625-21.438 21.438-21.438 11.84 0 21.465 9.5977 21.465 21.438 0 11.84-9.625 21.465-21.465 21.465-11.812 0-21.438-9.625-21.438-21.465zm88.215 212.93c0-6.125 2.625-11.621 6.7539-15.531h0.027344c3.8555-3.6367 8.9961-5.9062 14.684-5.9062 11.84 0 21.438 9.625 21.438 21.465 0 11.84-9.625 21.438-21.438 21.438-11.84-0.027344-21.465-9.6523-21.465-21.465zm234.45 109.73c-11.84 0-21.438-9.625-21.438-21.465 0-11.812 9.5977-21.438 21.438-21.438 11.84 0 21.465 9.625 21.465 21.465 0 11.812-9.625 21.438-21.465 21.438zm213.01-88.289c-11.84 0-21.465-9.625-21.465-21.438 0-11.84 9.625-21.465 21.465-21.465 5.6875 0 10.855 2.2695 14.684 5.9062h0.027344c4.1289 3.9102 6.7539 9.4062 6.7539 15.531-0.027344 11.84-9.6523 21.465-21.465 21.465z"/>
</svg>
